<?xml version="1.0" encoding="UTF-8" standalone="no"?>
<svg 
    role="img" 
    xmlns="http://www.w3.org/2000/svg" 
    width="1000mm"
    height="1000mm"
    viewBox="0 0 1000 1000"
    style="max-width:1.6em; height: auto;">
    
    <path 
        id="path" 
        style="opacity:1;vector-effect:none;fill:#000000;fill-opacity:1;"
        d=" M 900 163C 934 163 962 191 962 225C 962 225 962 800 962 800C 962 834 934 862 900 862C 900 862 100 862 100 862C 66 862 38 834 38 800C 38 800 38 225 38 225C 38 191 66 163 100 163C 100 163 900 163 900 163M 113 355C 113 355 421 569 421 569C 455 592 479 600 500 600C 521 600 545 592 579 569C 579 569 887 355 887 355C 887 355 887 238 887 238C 887 238 113 238 113 238C 113 238 113 355 113 355M 113 788C 113 788 887 788 887 788C 887 788 887 447 887 447C 887 447 621 631 621 631C 621 631 621 631 621 631C 580 658 541 675 500 675C 459 675 420 658 379 631C 379 631 379 631 379 631C 379 631 113 447 113 447C 113 447 113 788 113 788"
        transform="">
    </path>    
</svg>