<?xml version="1.0" encoding="UTF-8" standalone="no"?>
<svg 
    role="img" 
    xmlns="http://www.w3.org/2000/svg" 
    width="1000mm"
    height="1000mm"
    viewBox="0 0 1000 1000"
    style="max-width:1.6em; height: auto;">
    
    <path 
        id="path" 
        style="opacity:1;vector-effect:none;fill:#000000;fill-opacity:1;"
        d=" M 505 9C 557 13 586 62 622 94C 742 214 863 334 982 455C 1010 484 987 522 961 542C 937 563 919 593 888 603C 887 691 889 779 886 867C 884 917 832 944 786 938C 719 936 652 940 585 936C 547 925 533 886 538 851C 538 813 538 775 538 738C 513 738 488 738 463 738C 462 788 465 840 461 890C 450 928 411 942 376 938C 311 937 247 939 183 936C 133 934 106 882 113 836C 113 759 113 681 113 603C 77 590 56 555 28 531C -4 509 0 461 31 441C 167 305 303 168 440 33C 457 17 481 7 505 9C 505 9 505 9 505 9M 487 92C 355 224 223 356 91 488C 103 497 115 517 127 520C 240 408 352 294 465 183C 496 155 535 176 557 204C 663 310 769 416 875 522C 885 510 904 498 908 486C 774 353 642 219 509 87C 501 80 492 85 487 92C 487 92 487 92 487 92M 192 562C 183 576 190 597 188 615C 188 697 186 779 189 861C 255 864 321 862 388 863C 389 811 385 758 390 707C 399 669 441 659 474 663C 509 665 546 657 579 669C 620 689 612 737 613 774C 613 803 613 833 613 863C 679 862 745 864 811 861C 814 763 812 664 813 566C 709 461 604 357 500 253C 397 356 294 459 192 562C 192 562 192 562 192 562M 389 864C 390 866 390 864 389 864C 389 864 389 864 389 864M 610 865C 612 864 610 864 610 865C 610 865 610 865 610 865"
        transform="">
    </path>    
</svg>